# xmcd
#
# Track frame offsets: 
#        150
#        10560
#        20885
#        33457
#        49917
#        63075
#        70412
#        85472
#        99450
#        109437
#        120427
#        140022
#        163757
#        178605
#        190309
#        202270
#        212345
#        228080
#        242400
#        260467
#
# Disc length: 3652 seconds
#
# Revision: 0
# Processed by: cddbd v1.4PL0 Copyright (c) Steve Scherf et al.
# Submitted via: ExactAudioCopy v0.90b2
#
DISCID=1b0e4214
DTITLE=Various Artist - Hymns of Our Faith Volume Two
DYEAR=1999
DGENRE=Gospel
TTITLE0=He Set Me Free
TTITLE1=Since Jesus Came Into My Heart
TTITLE2=Amazing Grace
TTITLE3=When I survey The Wondrous Cross
TTITLE4=The Old Gospel Ship
TTITLE5=When The Roll Is Called Up Yonder
TTITLE6=Sweet Hour Of Prayer
TTITLE7=He Touched Me
TTITLE8=All Hail The Power
TTITLE9=When The Saints Go Marching In
TTITLE10=What A Friend We Have In Jesus
TTITLE11=His Eye Is On The Sparrow
TTITLE12=Family Bible
TTITLE13=Just Over In The Gloryland
TTITLE14=Rock Of Ages
TTITLE15=We'll Understand It Better By And By
TTITLE16=Whispering Hope
TTITLE17=Daddy Sang Bass
TTITLE18=Precious Memories
TTITLE19=Love Lifted Me
EXTD=
EXTT0=
EXTT1=
EXTT2=
EXTT3=
EXTT4=
EXTT5=
EXTT6=
EXTT7=
EXTT8=
EXTT9=
EXTT10=
EXTT11=
EXTT12=
EXTT13=
EXTT14=
EXTT15=
EXTT16=
EXTT17=
EXTT18=
EXTT19=
PLAYORDER=
